<svg id="visual" viewBox="0 0 900 600" width="900" height="600" xmlns="http://www.w3.org/2000/svg" xmlns:xlink="http://www.w3.org/1999/xlink" version="1.1"><rect x="0" y="0" width="900" height="600" fill="#042238"></rect><path d="M0 349L21.5 357.8C43 366.7 86 384.3 128.8 384.7C171.7 385 214.3 368 257.2 368.8C300 369.7 343 388.3 385.8 395.3C428.7 402.3 471.3 397.7 514.2 383C557 368.3 600 343.7 642.8 345.3C685.7 347 728.3 375 771.2 389.7C814 404.3 857 405.7 878.5 406.3L900 407L900 601L878.5 601C857 601 814 601 771.2 601C728.3 601 685.7 601 642.8 601C600 601 557 601 514.2 601C471.3 601 428.7 601 385.8 601C343 601 300 601 257.2 601C214.3 601 171.7 601 128.8 601C86 601 43 601 21.5 601L0 601Z" fill="#ffffff"></path><path d="M0 421L21.5 410.5C43 400 86 379 128.8 381C171.7 383 214.3 408 257.2 410.5C300 413 343 393 385.8 391.8C428.7 390.7 471.3 408.3 514.2 415.3C557 422.3 600 418.7 642.8 408.3C685.7 398 728.3 381 771.2 378.2C814 375.3 857 386.7 878.5 392.3L900 398L900 601L878.5 601C857 601 814 601 771.2 601C728.3 601 685.7 601 642.8 601C600 601 557 601 514.2 601C471.3 601 428.7 601 385.8 601C343 601 300 601 257.2 601C214.3 601 171.7 601 128.8 601C86 601 43 601 21.5 601L0 601Z" fill="#cbe5da"></path><path d="M0 434L21.5 436.2C43 438.3 86 442.7 128.8 439.3C171.7 436 214.3 425 257.2 417.8C300 410.7 343 407.3 385.8 418.5C428.7 429.7 471.3 455.3 514.2 468.2C557 481 600 481 642.8 472.8C685.7 464.7 728.3 448.3 771.2 449.5C814 450.7 857 469.3 878.5 478.7L900 488L900 601L878.5 601C857 601 814 601 771.2 601C728.3 601 685.7 601 642.8 601C600 601 557 601 514.2 601C471.3 601 428.7 601 385.8 601C343 601 300 601 257.2 601C214.3 601 171.7 601 128.8 601C86 601 43 601 21.5 601L0 601Z" fill="#96cab7"></path><path d="M0 468L21.5 466.3C43 464.7 86 461.3 128.8 467C171.7 472.7 214.3 487.3 257.2 499.3C300 511.3 343 520.7 385.8 513.8C428.7 507 471.3 484 514.2 475.3C557 466.7 600 472.3 642.8 481.5C685.7 490.7 728.3 503.3 771.2 501.3C814 499.3 857 482.7 878.5 474.3L900 466L900 601L878.5 601C857 601 814 601 771.2 601C728.3 601 685.7 601 642.8 601C600 601 557 601 514.2 601C471.3 601 428.7 601 385.8 601C343 601 300 601 257.2 601C214.3 601 171.7 601 128.8 601C86 601 43 601 21.5 601L0 601Z" fill="#5eaf94"></path><path d="M0 558L21.5 553.3C43 548.7 86 539.3 128.8 533.5C171.7 527.7 214.3 525.3 257.2 523.3C300 521.3 343 519.7 385.8 522.3C428.7 525 471.3 532 514.2 534.8C557 537.7 600 536.3 642.8 533.5C685.7 530.7 728.3 526.3 771.2 524.8C814 523.3 857 524.7 878.5 525.3L900 526L900 601L878.5 601C857 601 814 601 771.2 601C728.3 601 685.7 601 642.8 601C600 601 557 601 514.2 601C471.3 601 428.7 601 385.8 601C343 601 300 601 257.2 601C214.3 601 171.7 601 128.8 601C86 601 43 601 21.5 601L0 601Z" fill="#009473"></path></svg>